<svg xmlns="http://www.w3.org/2000/svg" viewBox="0 0 600 237"><path data-name="Path 1155" d="M0 111.7l108.4 20.2l21.5-111.5l-36.9-6.9l-5 26.4l-33.9-33.7l-32.7-6.2Z" fill="#0063ff" transform="translate(128.9,65.9) translate(-64.9,-65.9)"/><path data-name="Path 1156" d="M121.2 110.8l-37.9 10.7l-31.9-109.2l38.1-10.7Z" fill="#bb63ff" transform="translate(227,63.9) translate(-86.3,-61.5)"/><path data-name="Path 1157" d="M98.1 49.7l-56.6 113.4h113.7Z" fill="#ed1c2e" transform="translate(224.3,180.6) translate(-98.3,-106.4)"/><path id="Path_1158" data-name="Path 1158" d="M49.1 50.6c-14.9 2.5-28.2 10.8-36.9 23.1c-8.7 12.4-12.1 27.6-9.5 42.5c5.5 30.7 35.2 51.3 66.3 45.9c13.6-2.4 25.9-9.6 34.7-20.2l-15-84.3c-11.9-6.9-26-9.4-39.6-7" fill="#33b57a" transform="translate(135.5,242.4) translate(0,0) translate(-75.1,-168.1)"/><path data-name="Path 1159" d="M124 41.4v-25.4h6v35.6h-6.5l-14.5-25.4v25.4h-5.7v-35.6h6.5Z" transform="translate(310.8,57.7) translate(-116.6,-33.8)"/><path data-name="Path 1160" d="M129.3 40.7c1-0.1 2-0.2 3-0.5c.8-0.4 1.6-1 2.2-1.8c.6-0.7 1.1-1.5 1.5-2.4c.3-1 .5-2 .5-3c0-1.1-0.2-2.1-0.5-3c-0.3-1-0.8-1.9-1.5-2.5c-0.6-0.8-1.4-1.4-2.2-1.8c-1-0.4-2-0.6-3-0.5c-1.1 .1-2.1 .2-3 .5c-0.8 .5-1.6 1.1-2.3 1.8c-0.5 .8-1 1.6-1.5 2.5c-0.3 .9-0.4 1.9-0.5 3c.1 1 .2 2 .5 3c.3 .9 .8 1.8 1.5 2.4c.7 .8 1.4 1.4 2.3 1.8c.9 .3 1.9 .5 3 .5m12.7-19.5v24h-5.8v-3.5c-0.7 1.3-1.8 2.2-3.2 2.7c-1.3 .7-2.8 1.1-4.2 1c-1.8 .1-3.5-0.3-5-1c-1.5-0.7-2.8-1.6-4-2.7c-1.1-1.2-1.9-2.5-2.5-4c-0.6-1.5-0.9-3.1-1-4.7c-0.1-1.7 .3-3.3 1-4.8c.6-1.4 1.4-2.8 2.5-4c1.1-1.1 2.5-2.1 4-2.7c1.5-0.7 3.2-1.1 5-1c1.4 0 2.9 .3 4.2 1c1.3 .6 2.4 1.6 3.2 2.7v-3.2h5.8Z" transform="translate(342.7,63.6) translate(-129.1,-33)"/><path data-name="Path 1161" d="M144.7 49.1c-0.5 0-1 .3-1.8 .3h-2.5c-0.8 0-1.7-0.1-2.5-0.3c-0.9-0.2-1.7-0.5-2.5-1c-0.8-0.7-1.5-1.5-2-2.5c-0.5-1.5-0.8-3.1-0.7-4.7v-11.2h-4v-4.8h4v-7.2h5.7v7.2h5.5v4.8h-5.5v9.7c0 .8 0 1.7 .3 2.5l.7 1.5c.3 .2 .8 .5 1 .7c.5 0 1 .3 1.5 .3h1.5c.4 0 .9 0 1.3-0.3v5Z" transform="translate(368.8,59.9) translate(-136.7,-33.5)"/><path data-name="Path 1162" d="M138 28.6h5.7v23.9h-5.7Zm-1.5-8.8c0-2.3 1.9-4.2 4.2-4.2c2.4 0 4.3 1.9 4.3 4.2c-0.1 1.2-0.5 2.2-1.3 3c-0.8 .8-1.8 1.3-3 1.3c-1.1-0.1-2.1-0.5-3-1.3c-0.7-0.8-1.1-1.9-1.2-3" transform="translate(384.5,57.3) translate(-140.7,-34)"/><path data-name="Path 1163" d="M154.4 40.5c1 0 2-0.2 3-0.5c.9-0.2 1.7-0.9 2.2-1.7c.7-0.7 1.2-1.6 1.5-2.5c.3-1 .5-2 .5-3c0-1-0.2-2-0.5-3c-0.2-0.9-0.7-1.8-1.5-2.5c-0.5-0.7-1.3-1.3-2.2-1.7c-0.9-0.4-2-0.6-3-0.5c-1 0-2 .2-3 .5c-0.8 .5-1.5 1.1-2.2 1.7c-0.6 .8-1.1 1.7-1.5 2.5c-0.3 1-0.5 2-0.5 3c0 1 .2 2 .5 3c.2 1 .8 1.8 1.5 2.5c.6 .7 1.4 1.3 2.2 1.7c1 .3 2 .5 3 .5m0 5c-1.8 .1-3.6-0.2-5.2-1c-1.5-0.6-2.9-1.5-4-2.7c-1.1-1.2-1.9-2.5-2.5-4c-0.6-1.5-0.9-3.1-1-4.7c-0.1-1.7 .3-3.3 1-4.8c.6-1.4 1.4-2.8 2.5-4c1.1-1.1 2.5-2.1 4-2.7c3.3-1.3 7.1-1.3 10.4 0c1.6 .6 2.9 1.6 4 2.7c1.2 1.1 2 2.5 2.5 4c.6 1.5 1 3.1 1 4.8c.1 1.6-0.3 3.2-1 4.7c-0.6 1.5-1.4 2.8-2.5 4c-1.1 1.2-2.4 2.1-4 2.7c-1.6 .8-3.4 1.1-5.2 1" transform="translate(405.9,63.8) translate(-154.4,-33.1)"/><path data-name="Path 1164" d="M154.3 21.2h5.7v3.3c.8-1.3 1.9-2.3 3.3-3c1.4-0.7 3.1-1.1 4.7-1c1.5 0 3.1 .2 4.5 .7c1.2 .4 2.1 1.2 2.7 2.3c.6 .9 1 1.9 1.3 3c.2 1.3 .3 2.6 .2 4v14.2h-5.7v-12.2c0-1 0-2-0.2-3c-0.2-0.8-0.5-1.5-0.8-2.3c-0.4-0.6-0.9-1.1-1.5-1.5c-0.8-0.4-1.6-0.6-2.5-0.5c-1.7-0.1-3.4 .7-4.5 2c-1 1.6-1.6 3.4-1.5 5.3v12.2h-5.7v-23.5Z" transform="translate(435.8,63.2) translate(-165.5,-32.6)"/><path data-name="Path 1165" d="M178.1 40.7c1-0.1 2-0.2 3-0.5c.9-0.4 1.7-1 2.2-1.8c.6-0.8 1.1-1.6 1.5-2.4c.3-1 .5-2 .5-3c0-1.1-0.2-2.1-0.5-3c-0.2-1-0.7-1.9-1.5-2.5c-0.6-0.7-1.4-1.3-2.2-1.8c-0.9-0.4-2-0.6-3-0.5c-1 .1-2 .2-3 .5c-0.8 .5-1.5 1.1-2.2 1.8c-0.6 .8-1.1 1.6-1.5 2.5c-0.3 .9-0.5 1.9-0.5 3c0 1 .2 2 .5 3c.2 .9 .8 1.8 1.5 2.4c.6 .8 1.3 1.4 2.2 1.8c1 .3 2 .4 3 .5m13-19.5v24h-5.8v-3.5c-0.7 1.3-1.8 2.2-3.2 2.7c-1.3 .7-2.8 1.1-4.2 1c-1.8 .1-3.5-0.3-5-1c-1.5-0.7-2.8-1.6-4-2.7c-1.1-1.2-1.9-2.5-2.5-4c-0.6-1.5-0.9-3.1-1-4.7c-0.1-1.7 .3-3.3 1-4.8c.6-1.4 1.4-2.8 2.5-4c1.1-1.1 2.5-2.1 4-2.7c1.5-0.7 3.2-1.1 5-1c1.4 0 2.9 .3 4.2 1c1.3 .6 2.4 1.6 3.2 2.7v-3.2h5.8Z" transform="translate(465.1,63.6) translate(-178.2,-33)"/><path data-name="Rectangle 1353" d="M0 0h5.7v35.9h-5.7Z" transform="translate(488.5,57.8) translate(-2.9,-17.9)"/><path data-name="Rectangle 1354" d="M0 0h6.2v35.9h-6.2Z" transform="translate(300.6,119.1) translate(-3.1,-17.9)"/><path data-name="Path 1166" d="M108.8 45.8h5.7v3.3c.8-1.3 1.9-2.3 3.3-3c1.4-0.7 3.1-1.1 4.7-1c1.6-0.1 3.1 .3 4.5 1c1.2 .4 2.1 1.2 2.7 2.2c.6 1 1 2 1.3 3c.2 1.3 .3 2.7 .2 4v14.5h-5.7v-12.5c0-1 0-2-0.2-3c-0.2-0.7-0.5-1.5-0.8-2.2c-0.4-0.6-0.9-1.2-1.5-1.5c-0.8-0.4-1.6-0.6-2.5-0.5c-1.7-0.1-3.4 .6-4.5 2c-1 1.5-1.6 3.3-1.5 5.2v12.5h-5.7Z" transform="translate(322.4,124.7) translate(-120,-57.4)"/><path data-name="Path 1167" d="M132.7 56.3c.8 .3 1.8 .8 2.5 1c.8 .3 1.6 .8 2.2 1.3c.5 .5 1 1.2 1.5 1.7c.4 .9 .5 1.8 .5 2.7c.1 1.2-0.2 2.3-0.7 3.3c-0.5 .9-1.2 1.7-2 2.2c-0.9 .6-2 1-3 1.3c-1.2 .3-2.5 .4-3.7 .5c-1.3-0.1-2.5-0.2-3.8-0.5c-1.1-0.5-2.2-1-3.2-1.8c-1-0.7-1.7-1.6-2.3-2.7c-0.5-1.2-0.7-2.5-0.7-3.7h5.5c-0.1 1.2 .3 2.4 1.2 3.2c1 .7 2.1 1 3.3 1c.9 0 1.8-0.2 2.7-0.5c.8-0.5 1.3-1.3 1.3-2.3c-0.1-0.4-0.2-0.9-0.5-1.2c-0.5-0.4-1-0.8-1.5-1c-0.8-0.3-1.6-0.6-2.3-1c-1.1-0.3-2.2-0.8-3.2-1.2c-0.8-0.3-1.5-0.8-2.3-1c-1.3-0.7-2.3-1.7-3-3c-0.3-0.8-0.4-1.7-0.5-2.5c0-1.1 .3-2.1 .8-3c.6-0.8 1.3-1.6 2-2.3c.9-0.6 1.9-1 3-1.2c2.3-0.7 4.7-0.7 7 0c1 .4 2 1 3 1.7c.7 .8 1.4 1.6 1.9 2.5c.6 1 .8 2.2 .8 3.3h-5.5c.1-1-0.3-2-1-2.8c-0.5-0.7-1.5-1-3-1c-0.9 0-1.7 .3-2.5 .8c-0.7 .4-1.1 1.2-1 2c0 .4 .2 .9 .5 1.2c.4 .3 .8 .6 1.3 .8c.6 .3 1.3 .5 2 .7c.8 .7 1.7 1.2 2.7 1.5" transform="translate(348.8,125) translate(-129.7,-57.7)"/><path data-name="Path 1168" d="M144.9 73.8c-0.5 0-1 .3-1.8 .3h-2.5c-0.8 0-1.7-0.1-2.5-0.3c-0.9-0.2-1.7-0.5-2.5-1c-0.8-0.7-1.5-1.5-2-2.5c-0.5-1.5-0.8-3.1-0.7-4.7v-11.2h-4v-4.8h4v-7.2h5.7v7.2h5.5v4.8h-5.5v9.7c0 .8 0 1.7 .3 2.5l.7 1.5c.3 .2 .8 .5 1 .7c.5 0 1 .3 1.5 .3h1.5c.4 0 .9 0 1.3-0.3v5Z" transform="translate(369.3,121.5) translate(-136.9,-58.2)"/><path data-name="Path 1169" d="M137.9 53.2h5.8v23.9h-5.8Zm-1.2-8.8c0-2.3 1.9-4.2 4.2-4.2c2.4 0 4.3 1.9 4.3 4.2c-0.1 1.2-0.5 2.2-1.3 3c-0.8 .8-1.8 1.3-3 1.3c-1.1-0.1-2.1-0.5-3-1.3c-0.8-0.8-1.2-1.8-1.2-3" transform="translate(385,118.6) translate(-140.9,-58.6)"/><path data-name="Path 1170" d="M157.6 73.8c-0.5 0-1 .3-1.8 .3h-2.5c-0.8 0-1.7-0.1-2.5-0.3c-0.9-0.2-1.7-0.5-2.5-1c-0.8-0.7-1.5-1.5-2-2.5c-0.5-1.5-0.8-3.1-0.7-4.7v-11.2h-4v-4.8h4v-7.2h5.7v7.2h5.5v4.8h-5.5v9.7c0 .8 0 1.7 .3 2.5l.7 1.5c.3 .2 .8 .5 1 .7c.5 0 1 .3 1.5 .3h1.5c.4 0 .9 0 1.3-0.3v5Z" transform="translate(400.9,121.5) translate(-149.6,-58.2)"/><path data-name="Path 1171" d="M172.1 45.4v23.9h-5.7v-3.2c-0.8 1.3-1.9 2.3-3.2 3c-1.5 .7-3.1 1.1-4.8 1c-1.5 0-3-0.2-4.5-0.8c-1.1-0.4-2.1-1.2-2.7-2.2c-0.5-1-0.9-2-1.3-3c-0.2-1.3-0.3-2.7-0.2-4v-14.2h5.7v12.2c0 .9 .1 1.9 .3 2.8c.2 .7 .4 1.5 .7 2.2c.4 .6 .9 1.1 1.5 1.5c.8 .4 1.7 .6 2.5 .5c1.7 .1 3.4-0.7 4.5-2c1-1.5 1.6-3.4 1.5-5.2v-12.3h5.7Z" transform="translate(424.3,125.5) translate(-160.9,-57.7)"/><path data-name="Path 1172" d="M176.8 73.8c-0.5 0-1 .3-1.8 .3h-2.5c-0.8 0-1.7-0.1-2.5-0.3c-0.9-0.2-1.7-0.5-2.5-1c-0.8-0.7-1.5-1.5-2-2.5c-0.5-1.5-0.8-3.1-0.7-4.7v-11.2h-4v-4.8h4v-7.2h5.7v7.2h5.5v4.8h-5.5v9.7c0 .8 0 1.7 .3 2.5l.7 1.5c.3 .2 .8 .5 1 .7c.5 0 1 .3 1.5 .3h1.5c.4 0 .9 0 1.3-0.3v5Z" transform="translate(448.8,121.5) translate(-168.8,-58.2)"/><path data-name="Path 1173" d="M180 49.3c-1.6 0-3.2 .5-4.5 1.5c-1.2 1-1.7 2.5-1.7 4.5h11.9c.2-1.6-0.5-3.2-1.7-4.2c-1.1-1.1-2.5-1.7-4-1.8m-6.2 10.3c0 .8 .2 1.6 .5 2.4c.2 .8 .5 1.5 1 2c.5 .6 1.2 1 2 1.3c.9 .3 1.9 .5 3 .5c1.7 0 2.7-0.3 3.5-1c.7-0.5 1.3-1.3 1.5-2.3h5.7c-0.2 1.1-0.6 2.1-1 3c-0.5 1-1.3 1.9-2.3 2.5c-0.9 .8-2 1.3-3.2 1.8c-3.1 1.1-6.4 1-9.5-0.3c-1.4-0.6-2.7-1.5-3.7-2.7c-1-1.2-1.7-2.5-2.2-4c-1-3.3-1-6.7 0-10c.5-1.4 1.2-2.8 2.2-4c1-1.1 2.3-2.1 3.7-2.7c1.6-0.7 3.3-1.1 5-1c1.5 0 3.1 .3 4.5 .7c1.3 .6 2.5 1.3 3.5 2.3c1 1 1.9 2.2 2.5 3.5c.5 1.3 .7 2.8 .7 4.2v1.5c.1 .7 0 1.4-0.2 2h-17.2Z" transform="translate(471,125.1) translate(-179.8,-57.8)"/><path data-name="Path 1174" d="M197.3 65.1c1 0 2-0.2 3-0.5c.9-0.3 1.7-0.9 2.2-1.7c.7-0.7 1.2-1.6 1.5-2.5c.3-1 .5-2 .5-3c0-1-0.2-2-0.5-3c-0.2-0.9-0.7-1.8-1.5-2.5c-0.5-0.7-1.3-1.3-2.2-1.7c-0.9-0.4-2-0.6-3-0.5c-1 0-2 .2-3 .5c-0.8 .5-1.5 1.1-2.2 1.7c-0.6 .8-1.1 1.7-1.5 2.5c-0.3 1-0.5 2-0.5 3c0 1 .2 2 .5 3c.2 1 .8 1.8 1.5 2.5c.6 .7 1.4 1.3 2.2 1.7c1 .4 2 .6 3 .5m0 5c-1.8 .1-3.6-0.2-5.2-1c-1.5-0.6-2.9-1.5-4-2.7c-1.1-1.2-1.9-2.5-2.5-4c-0.6-1.5-0.9-3.1-1-4.7c-0.1-1.7 .3-3.3 1-4.8c.6-1.4 1.4-2.8 2.5-4c1.1-1.1 2.5-2.1 4-2.7c3.3-1.3 7.1-1.3 10.4 0c1.6 .6 2.9 1.6 4 2.7c1.2 1.1 2 2.5 2.5 4c.6 1.5 1 3.1 1 4.8c.1 1.6-0.3 3.2-1 4.7c-0.6 1.5-1.4 2.8-2.5 4c-1.1 1.1-2.5 2.1-4 2.7c-1.6 .8-3.4 1.1-5.2 1" transform="translate(512.8,125.1) translate(-197.3,-57.7)"/><path data-name="Path 1175" d="M212.8 45.7c-0.5 0-0.7-0.2-1.2-0.2h-2.5c-0.5 0-0.7 .2-1.2 .5c-0.5 .3-0.8 .7-1 1.2c-0.3 .8-0.4 1.5-0.3 2.3v3.5h6.2v4.7h-6.2v18.9h-5.7v-19.2h-5v-4.7h5v-3c-0.1-1.8 .2-3.6 1-5.2c.5-1.1 1.3-2 2.2-2.8c.9-0.5 2-0.8 3-1c1 0 1.8-0.2 2.5-0.2c.7-0.1 1.4 0 2 .2c.5 .1 .9 .2 1.3 .5v4.5Z" transform="translate(536.8,119) translate(-204.4,-58.6)"/><path data-name="Path 1176" d="M139.6 89.9c-0.5 1.8-1.3 3.4-2.3 5c-1 1.5-2.3 2.9-3.7 4c-1.6 1.2-3.3 2.1-5.2 2.7c-2 .8-4.1 1.1-6.3 1c-2.7 .1-5.4-0.4-7.9-1.5c-2.3-1-4.3-2.4-6-4.2c-1.7-1.7-3-3.7-3.8-6c-0.8-2.3-1.2-4.7-1.2-7.2c0-2.4 .5-4.7 1.2-7c.8-2.2 2.1-4.3 3.8-6c1.6-1.8 3.5-3.2 5.7-4.2c2.5-1.1 5.1-1.6 7.7-1.5c2.5-0.1 4.9 .3 7.3 1c2 .7 3.8 1.7 5.5 3c1.5 1.2 2.7 2.7 3.4 4.5c1 1.7 1.6 3.5 1.8 5.5h-6.2c-0.2-1.3-0.6-2.5-1.3-3.5c-0.5-1.1-1.3-2-2.2-2.8c-1-0.8-2.1-1.4-3.3-1.7c-1.2-0.5-2.6-0.8-4-0.8c-1.9 0-3.7 .5-5.4 1.3c-1.6 .7-3.1 1.7-4.3 3c-1 1.2-1.9 2.7-2.5 4.2c-0.5 1.6-0.9 3.3-1 5c0 1.8 .3 3.6 1 5.2c.6 1.7 1.5 3.1 2.8 4.3c1.2 1.2 2.6 2.2 4.2 3c1.9 .7 4 1 6 1c1.1-0.1 2.2-0.3 3.2-0.5c1.1-0.3 2.1-0.9 3-1.5c.9-0.7 1.6-1.4 2.3-2.3c.7-0.8 1.2-1.7 1.5-2.7h6.2Z" transform="translate(315.4,180.8) translate(-121.4,-83.8)"/><path data-name="Path 1177" d="M120.8 77.6h5.8v23.9h-5.8Zm-1.2-8.5c0-2.3 1.9-4.2 4.2-4.2c2.4 0 4.3 1.9 4.3 4.2c-0.1 1.2-0.5 2.2-1.3 3c-0.8 .8-1.8 1.3-3 1.3c-1.1-0.1-2.1-0.5-3-1.3c-0.7-0.8-1.1-1.9-1.2-3" transform="translate(342.3,180.1) translate(-123.8,-83.2)"/><path data-name="Path 1178" d="M140.8 75.4c-0.5 0-0.7-0.3-1-0.3h-1c-2-0.1-4 .6-5.5 2c-1.4 1.9-2.1 4.2-2 6.5v10.2h-5.7v-23.7h5.7v3.8c.4-0.6 .8-1.1 1.3-1.5c.5-0.6 1-1 1.7-1.3c.7-0.4 1.5-0.7 2.3-1c.7-0.2 1.5-0.2 2.2-0.2c.8-0.1 1.5 0 2.3 .2v5.3Z" transform="translate(360.8,186.2) translate(-133.3,-81.8)"/><path data-name="Path 1179" d="M150.5 78.7c-0.2-1.2-0.8-2.3-1.5-3.2c-1.2-0.9-2.7-1.4-4.2-1.3c-1 .1-1.9 .2-2.8 .5c-0.8 .5-1.4 1.1-2 1.8c-0.5 .7-1 1.6-1.2 2.5c-0.3 .9-0.5 2-0.5 3c0 1 .2 2 .5 3c.2 .9 .7 1.7 1.2 2.5c.6 .7 1.4 1.3 2.3 1.7c.9 .4 1.9 .6 3 .5c1.7 0 3-0.3 3.7-1c.7-0.8 1.3-1.7 1.7-2.7h5.8c-0.2 1.2-0.6 2.4-1.3 3.4c-0.5 1.1-1.3 2.1-2.2 2.8c-1 .8-2.2 1.5-3.5 2c-1.5 .5-3.1 .8-4.7 .7c-1.8 .1-3.6-0.2-5.3-1c-1.4-0.7-2.6-1.6-3.7-2.7c-1-1.2-1.8-2.5-2.3-4c-0.5-1.5-0.7-3.1-0.7-4.7c0-1.6 .3-3.2 .7-4.8c.5-1.4 1.3-2.8 2.3-4c1-1.1 2.3-2.1 3.7-2.7c1.7-0.7 3.5-1.1 5.3-1c1.7-0.1 3.3 .2 4.9 .7c1.4 .5 2.6 1.3 3.5 2.3c1 .8 1.7 1.8 2 3c.5 1.1 .8 2.3 .8 3.5h-5.5Z" transform="translate(382.8,186.9) translate(-144.6,-82.5)"/><path data-name="Path 1180" d="M166.8 70v23.9h-5.7v-3.2c-0.8 1.3-1.9 2.3-3.2 3c-1.5 .7-3.1 1.1-4.8 1c-1.5 0-3-0.2-4.5-0.8c-1.1-0.4-2.1-1.2-2.7-2.2c-0.5-1-0.9-2-1.3-3c-0.2-1.3-0.3-2.7-0.2-4v-14.7h5.7v12.5c0 .9 .1 1.8 .3 2.7c.2 .8 .4 1.5 .7 2.2c.4 .7 .9 1.2 1.5 1.5c.8 .5 1.7 .6 2.5 .5c1.7 .1 3.4-0.6 4.5-1.9c1.1-1.6 1.6-3.4 1.5-5.3v-12.2Z" transform="translate(411.1,186.8) translate(-155.6,-82.3)"/><path data-name="Path 1181" d="M168.5 80.9c.8 .3 1.8 .8 2.5 1c.8 .3 1.6 .8 2.2 1.3c.5 .5 1 1.2 1.5 1.7c.4 .9 .5 1.8 .5 2.7c.1 1.2-0.2 2.3-0.7 3.3c-0.5 .9-1.2 1.7-2 2.2c-0.9 .6-2 1-3 1.3c-2.4 .6-5 .6-7.5 0c-1.1-0.5-2.2-1-3.2-1.8c-1-0.7-1.7-1.6-2.3-2.7c-0.5-1.2-0.7-2.5-0.7-3.8h5.5c-0.1 1.3 .3 2.5 1.2 3.3c1 .7 2.1 1 3.3 1c.9 0 1.8-0.2 2.7-0.5c.8-0.5 1.3-1.3 1.3-2.3c-0.1-0.4-0.2-0.9-0.5-1.2c-0.5-0.4-1-0.8-1.5-1c-0.8-0.3-1.6-0.6-2.3-1c-1.1-0.3-2.2-0.8-3.2-1.2c-0.8-0.3-1.5-0.8-2.3-1c-1.3-0.7-2.3-1.7-3-3c-0.3-0.8-0.4-1.7-0.5-2.5c0-1.1 .3-2.1 .8-3c.6-0.8 1.2-1.6 2-2.3c.9-0.6 1.9-1 3-1.2c2.3-0.7 4.7-0.7 7 0c1 .4 2 1 2.9 1.7c.8 .8 1.5 1.6 2 2.5c.5 1 .8 2.1 .8 3.3h-5.5c.1-1-0.3-2.1-1-2.8c-0.5-0.7-1.5-1-3-1c-0.9 0-1.7 .3-2.5 .8c-0.7 .4-1.1 1.2-1 2c0 .4 .2 .9 .5 1.2c.4 .3 .8 .6 1.3 .8c.6 .3 1.3 .5 2 .7c.6 .8 1.6 1.4 2.7 1.5" transform="translate(438.1,186.3) translate(-165.5,-82.3)"/><path data-name="Path 1182" d="M184.3 75.2l-5 16.2h9.9Zm8.4 25.9l-1.5-4.5h-13.7l-1.5 4.5h-6.2l12.5-35.9h4.2l12.5 35.9Z" transform="translate(477.8,180.5) translate(-184.4,-83.1)"/><path data-name="Path 1183" d="M198.4 75.4c-0.5 0-0.7-0.3-1-0.3h-1c-2-0.1-4 .6-5.5 2c-1.4 1.9-2.1 4.2-2 6.5v10.2h-5.7v-23.7h5.7v3.8c.4-0.6 .8-1.1 1.3-1.5c.5-0.6 1-1 1.7-1.3c.7-0.4 1.5-0.7 2.3-1c.7-0.2 1.5-0.2 2.2-0.2c.8-0.1 1.5 0 2.3 .2v5.3Z" transform="translate(504.4,186.2) translate(-190.9,-81.8)"/><path data-name="Path 1184" d="M206 98.3c-0.5 0-1 .2-1.8 .2h-2.5c-0.8 0-1.7 0-2.5-0.2c-0.9-0.2-1.7-0.6-2.5-1c-0.8-0.7-1.5-1.6-2-2.5c-0.5-1.5-0.8-3.2-0.7-4.8v-11.2h-4v-4.5h4v-7.2h5.7v7.2h5.5v4.8h-5.5v9.7c0 .8 0 1.7 .3 2.5l.7 1.5c.3 .2 .8 .5 1 .7c.5 0 1 .3 1.5 .3h1.5c.4 0 .9 0 1.3-0.3v4.8Z" transform="translate(521.6,183) translate(-198,-82.8)"/><path data-name="Path 1185" d="M210.4 80.9c.8 .3 1.8 .8 2.5 1c.8 .3 1.6 .8 2.2 1.3c.5 .5 1 1.2 1.5 1.7c.4 .9 .5 1.8 .5 2.7c.1 1.2-0.2 2.3-0.7 3.3c-0.5 .9-1.2 1.7-2 2.2c-0.9 .6-2 1-3 1.3c-2.4 .6-5 .6-7.5 0c-1.1-0.5-2.2-1-3.2-1.8c-1-0.7-1.7-1.6-2.3-2.7c-0.5-1.2-0.7-2.5-0.7-3.8h5.5c-0.1 1.3 .3 2.5 1.2 3.3c1 .7 2.1 1 3.3 1c.9 0 1.8-0.2 2.7-0.5c.8-0.5 1.3-1.3 1.3-2.3c-0.1-0.4-0.2-0.9-0.5-1.2c-0.5-0.4-1-0.8-1.5-1c-0.8-0.3-1.6-0.6-2.3-1c-1.1-0.3-2.2-0.8-3.2-1.2c-0.8-0.3-1.5-0.8-2.3-1c-1.3-0.7-2.3-1.7-3-3c-0.3-0.8-0.4-1.7-0.5-2.5c0-1.1 .3-2.1 .8-3c.6-0.8 1.2-1.6 2-2.3c.9-0.6 1.9-1 3-1.2c2.3-0.7 4.7-0.7 7 0c1 .4 2 1 2.9 1.7c.8 .8 1.5 1.6 2 2.5c.5 1 .8 2.1 .8 3.3h-5.5c.1-1-0.3-2.1-1-2.8c-0.5-0.7-1.5-1-3-1c-0.9 0-1.8 .3-2.5 .8c-0.7 .4-1.1 1.2-1 2c0 .4 .2 .9 .5 1.2c.4 .3 .8 .6 1.3 .8c.6 .3 1.3 .5 2 .7c.7 .7 1.7 1.3 2.7 1.5" transform="translate(542.5,186.3) translate(-207.4,-82.3)"/><script><![CDATA[/*
 KeyshapeJS v1.1.1 (c) 2018-2021 Pixofield Ltd | pixofield.com/keyshapejs/mit-license */
window.KeyshapeJS=function(){function t(a){return"undefined"!==typeof a}function x(a,b){return a&&0==a.indexOf(b)}function R(a){var b={},c;for(c in a)b[c]=a[c];return b}function H(a){if(!isFinite(a))throw Error("Non-finite value");}function S(a){if(14>=a)return 16;var b=T[a];b||(b=t(da[a])?0|(a.toLowerCase().indexOf("color")==a.length-5?48:0):1);return b}function K(a){return 0<=a?Math.pow(a,1/3):-Math.pow(-a,1/3)}function ea(a,b,c,d){if(0==a)return 0==b?b=-d/c:(a=Math.sqrt(c*c-4*b*d),d=(-c+a)/(2*
b),0<=d&&1>=d?b=d:(d=(-c-a)/(2*b),b=0<=d&&1>=d?d:0)),b;var e=c/a-b*b/(a*a)/3;c=b*b*b/(a*a*a)/13.5-b*c/(a*a)/3+d/a;var n=c*c/4+e*e*e/27;b=-b/(3*a);if(0>=n){if(0==e&&0==c)return-K(d/a);a=Math.sqrt(c*c/4-n);d=Math.acos(-c/2/a);c=Math.cos(d/3);d=Math.sqrt(3)*Math.sin(d/3);a=K(a);e=2*a*c+b;if(0<=e&&1>=e)return e;e=-a*(c+d)+b;if(0<=e&&1>=e)return e;e=a*(d-c)+b;if(0<=e&&1>=e)return e}else{a=K(-c/2+Math.sqrt(n));c=K(-c/2-Math.sqrt(n));d=a+c+b;if(0<=d&&1>=d)return d;d=-(a+c)/2+b;if(0<=d&&1>=d)return d}return 0}
function fa(a,b){if(48==a&&"number"===typeof b)return"rgba("+(b>>>24)+","+(b>>>16&255)+","+(b>>>8&255)+","+(b&255)/255+")";if(64==a)return b=b.map(function(a){return a+"px"}),b.join(",");if(96==a){a="";for(var c=b.length,d=0;d<c;d+=2)a+=b[d],a+=b[d+1].join(",");return a}if(80==a){if(0==b[0])return"none";a="";c=b.length;for(d=0;d<c;)a+=U[b[d]],1==b[d]?a+="("+b[d+1]+") ":5==b[d]?(a+="("+b[d+1]+"px "+b[d+2]+"px "+b[d+3]+"px rgba("+(b[d+4]>>>24)+","+(b[d+4]>>16&255)+","+(b[d+4]>>8&255)+","+(b[d+4]&255)/
255+")) ",d+=3):a=2==b[d]?a+("("+b[d+1]+"px) "):7==b[d]?a+("("+b[d+1]+"deg) "):a+("("+(0>b[d+1]?0:b[d+1])+") "),d+=2;return a}return 32==a?b+"px":b}function y(a){return 0>=a?0:255<=a?255:a}function ha(a,b,c,d){if(16==a||32==a)return(c-b)*d+b;if(0==a)return.5>d?b:c;if(48==a){if("number"===typeof b&&"number"===typeof c){var e=1-d;return(y(e*(b>>>24)+d*(c>>>24))<<24|y(e*(b>>>16&255)+d*(c>>>16&255))<<16|y(e*(b>>>8&255)+d*(c>>>8&255))<<8|y(e*(b&255)+d*(c&255)))>>>0}return.5>d?b:c}if(64==a){0==b.length&&
(b=[0]);0==c.length&&(c=[0]);var n=b.length;b.length!=c.length&&(n=b.length*c.length);var q=[];for(a=0;a<n;++a){var h=b[a%b.length];var g=(c[a%c.length]-h)*d+h;0>g&&(g=0);q.push(g)}return q}if(96==a){if(b.length!=c.length)return.5>d?b:c;n=b.length;q=[];for(a=0;a<n;a+=2){if(b[a]!==c[a])return.5>d?b:c;q[a]=b[a];q[a+1]=[];for(h=0;h<b[a+1].length;++h)q[a+1].push((c[a+1][h]-b[a+1][h])*d+b[a+1][h])}return q}if(80==a){n=b.length;if(n!=c.length)return.5>d?b:c;q=[];for(a=0;a<n;){if(b[a]!=c[a]||1==b[a])return.5>
d?b:c;q[a]=b[a];q[a+1]=(c[a+1]-b[a+1])*d+b[a+1];if(5==b[a]){q[a+2]=(c[a+2]-b[a+2])*d+b[a+2];q[a+3]=(c[a+3]-b[a+3])*d+b[a+3];e=1-d;var f=b[a+4],l=c[a+4];g=e*(f>>>24)+d*(l>>>24);var m=e*(f>>16&255)+d*(l>>16&255);h=e*(f>>8&255)+d*(l>>8&255);e=e*(f&255)+d*(l&255);q[a+4]=(y(m)<<16|y(h)<<8|y(e))+16777216*(y(g)|0);a+=3}a+=2}return q}return 0}function V(a,b){a:{var c=a+b[2];var d=b[4].length;for(var e=0;e<d;++e)if(c<b[4][e]){c=e;break a}c=d-1}d=b[2];e=b[4][c-1]-d;a=(a-e)/(b[4][c]-d-e);if(b[6]&&b[6].length>
c-1)if(d=b[6][c-1],1==d[0])if(0>=a)a=0;else if(1<=a)a=1;else{e=d[1];var n=d[3];a=ea(3*e-3*n+1,-6*e+3*n,3*e,-a);a=3*a*(1-a)*(1-a)*d[2]+3*a*a*(1-a)*d[4]+a*a*a}else 2==d[0]?(d=d[1],a=Math.ceil(a*d)/d):3==d[0]&&(d=d[1],a=Math.floor(a*d)/d);return ha(b[1]&240,b[5][c-1],b[5][c],a)}function L(){u||(v=(new Date).getTime()+W)}function O(a){if(a||!E){for(var b=!1,c=0;c<w.length;++c)w[c].J(a)&&(b=!0);if(a)for(;0<I.length;)if(a=I.shift(),c=a[0],1==a[1])c.onfinish&&(c.onfinish(),b=!0),c.I();else if(2==a[1]&&c.onloop)c.onloop();
return b}}function X(){L();O(!0)&&!u?(E=!0,M(X)):E=!1}function N(){E||(E=!0,M(X))}function Y(a,b){var c=[];a.split(b).forEach(function(a){c.push(parseFloat(a))});return c}function A(a){-1==a.indexOf(",")&&(a=a.replace(" ",","));return Y(a,",")}function Z(a){a._ks||(a._ks={});if(!a._ks.transform){for(var b=a._ks.transform=[],c=0;14>=c;++c)b[c]=0;b[10]=1;b[11]=1;if(a=a.getAttribute("transform")){a=a.trim().split(") ");for(c=a.length-2;0<=c;--c)if(x(a[c],"translate(")){for(var d=0;d<c;d++)a.shift();
break}c=a.shift();x(c,"translate(")&&(c=A(c.substring(10)),b[1]=c[0],b[2]=t(c[1])?c[1]:0,c=a.shift());x(c,"rotate(")&&(c=A(c.substring(7)),b[6]=c[0],c=a.shift());x(c,"skewX(")&&(c=A(c.substring(6)),b[7]=c[0],c=a.shift());x(c,"skewY(")&&(c=A(c.substring(6)),b[8]=c[0],c=a.shift());x(c,"scale(")&&(c=A(c.substring(6)),b[10]=c[0],b[11]=t(c[1])?c[1]:c[0],c=a.shift());x(c,"translate(")&&(c=A(c.substring(10)),b[13]=c[0],b[14]=t(c[1])?c[1]:0)}}}function aa(a){this.h=a;this.A=[];this.C=[];this.v=0;this.s=this.a=
this.c=null;this.i=this.f=this.g=0;this.b=1;this.j=this.F=this.o=!1}function J(a,b,c){b=a[b];void 0===b&&(b=a[c]);return b}function ia(a){return Array.isArray(a)?a:x(a,"cubic-bezier(")?(a=a.substring(13,a.length-1).split(","),[1,parseFloat(a[0]),parseFloat(a[1]),parseFloat(a[2]),parseFloat(a[3])]):x(a,"steps(")?(a=a.substring(6,a.length-1).split(","),[a[1]&&"start"==a[1].trim()?2:3,parseFloat(a[0])]):[0]}function ja(a){a=a.trim();return x(a,"#")?(parseInt(a.substring(1),16)<<8)+255:x(a,"rgba(")?(a=
a.substring(5,a.length-1),a=a.split(","),(parseInt(a[0],10)<<24)+(parseInt(a[1],10)<<16)+(parseInt(a[2],10)<<8)+255*parseFloat(a[3])<<0):a}function ba(a){!1===a.j&&(w.push(a),a.j=!0,!1!==a.h.autoplay&&a.play());return this}function P(a){if(!0===a.j){a._cancel();var b=w.indexOf(a);-1<b&&w.splice(b,1);b=I.indexOf(a);-1<b&&I.splice(b,1);a.j=!1}return this}var Q=Error("Not in timeline list"),ca="mpath posX posY    rotate skewX skewY  scaleX scaleY  anchorX anchorY".split(" "),ka=" translate translate    rotate skewX skewY  scale scale  translate translate".split(" "),
U="none url blur brightness contrast drop-shadow grayscale hue-rotate invert opacity saturate sepia".split(" "),M=window.requestAnimationFrame||window.webkitRequestAnimationFrame||window.mozRequestAnimationFrame||window.oRequestAnimationFrame||window.msRequestAnimationFrame||null;M||(M=function(a){window.setTimeout(a,16)});var la=navigator.vendor.match(/apple/i),T={d:97,fill:48,fillOpacity:16,filter:80,height:33,opacity:16,offsetDistance:33,stroke:48,strokeDasharray:64,strokeDashoffset:32,strokeOpacity:16,
strokeWidth:32,transform:1,width:33},da=window.getComputedStyle(document.documentElement),E=!1,v=(new Date).getTime(),u,W=0,w=[],I=[];aa.prototype={B:function(a){var b=0;if(null!==this.c){var c=this.l();0<this.b&&null!==c&&c>=this.f?this.i?(this.c=v-this.g/this.b,this.i--,b=2):(b=1,a?this.a=c:this.a=this.s?Math.max(this.s,this.f):this.f):0>this.b&&null!==c&&c<=this.g?this.i&&Infinity!=this.f?(this.c=v-this.f/this.b,this.i--,b=2):(this.i=0,b=1,a?this.a=c:this.a=this.s?Math.min(this.s,this.g):this.g):
null!==c&&0!=this.b&&(a&&null!==this.a&&(this.c=v-this.a/this.b),this.a=null)}this.s=this.l();return b},J:function(a){a&&(this.o&&(this.o=!1,null===this.c&&(0!=this.b&&null!==this.a?(this.c=v-this.a/this.b,this.a=null):this.c=v)),null===this.a&&null!==this.c&&(a=this.B(!1),0!=a&&I.push([this,a])));a=this.l();if(null===a)return!1;for(var b=this.A,c=this.C,d=0;d<b.length;++d){for(var e=b[d],n=!1,q=0;q<c[d].length;++q){var h=c[d][q],g=h[0];if(null!==g){var f=h[2];var l=h[4].length,m=h[4][l-1]-f;f=0==
m?h[5][l-1]:a<=f?h[5][0]:a>=f+h[3]?0==h[3]%m?h[5][l-1]:V(h[3]%m,h):V((a-f)%m,h);0==g?(e._ks.mpath=h[8],e._ks.transform[g]=f,n=!0):14>=g?(e._ks.transform[g]=f,n=!0):(f=fa(h[1]&240,f),h[1]&1?e.setAttribute(g,f):e.style[g]=f)}}if(n){n=e;Z(n);q=n._ks.transform;h="";if(g=n._ks.mpath)l=q[0],0>l&&(l=0),100<l&&(l=100),l=l*g[2]/100,f=g[1].getPointAtLength(l),h="translate("+f.x+","+f.y+") ",g[0]&&(.5>l?(l=f,f=g[1].getPointAtLength(.5)):l=g[1].getPointAtLength(l-.5),h+="rotate("+180*Math.atan2(f.y-l.y,f.x-l.x)/
Math.PI+") ");for(g=1;g<q.length;++g)f=q[g],f!=(10==g||11==g?1:0)&&(h+=" "+ka[g]+"(",h=2>=g?h+(1==g?f+",0":"0,"+f):13<=g?h+(13==g?f+",0":"0,"+f):10<=g?h+(10==g?f+",1":"1,"+f):h+f,h+=")");n.setAttribute("transform",h)}la&&e.setAttribute("opacity",e.getAttribute("opacity"))}return"running"==this.m()},I:function(){!1!==this.h.autoremove&&"finished"==this.m()&&P(this)},D:function(){if(!this.F){this.F=!0;for(var a=this.A,b=this.C,c=0;c<a.length;++c)for(var d=a[c],e=0;e<b[c].length;++e)14>=b[c][e][0]&&
Z(d)}},u:function(a){if("number"==typeof a)return a;if(!t(this.h.markers)||!t(this.h.markers[a]))throw Error("Invalid marker: "+a);return+this.h.markers[a]},play:function(a){t(a)&&null!==a&&(a=this.u(a),H(a),0>this.b&&a<this.g&&(a=this.g),0<this.b&&a>this.f&&(a=this.f),this.w(a,!0));if(!this.j)throw Q;a=this.l();if(0<this.b&&(null===a||a>=this.f))this.a=this.g;else if(0>this.b&&(null===a||a<=this.g)){if(Infinity==this.f)throw Error("Cannot seek to Infinity");this.a=this.f}else 0==this.b&&null===a&&
(this.a=this.g);if(null===this.a)return this;this.c=null;this.o=!0;this.D();N();return this},pause:function(a){if(!this.j)throw Q;t(a)&&(a=this.u(a),H(a));if("paused"!=this.m()){L();var b=this.l();if(null===b)if(0<=this.b)this.a=this.g;else{if(Infinity==this.f)throw Error("Cannot seek to Infinity");this.a=this.f}null!==this.c&&null===this.a&&(this.a=b);this.c=null;this.o=!1;this.B(!1);this.D();N()}t(a)&&this.w(a,!0);return this},range:function(a,b){if(0==arguments.length)return{"in":this.g,out:this.f};
var c=this.u(a),d=this.v;t(b)&&(d=this.u(b));H(c);if(0>c||0>d||c>=d||isNaN(d))throw Error("Invalid range");var e=this.m();this.g=c;this.f=d;"finished"==e&&"running"==this.m()&&this.play();return this},loop:function(a){if(!t(a))return{count:this.i};this.i=!0===a?Infinity:Math.floor(a);if(0>this.i||isNaN(this.i))this.i=0;return this},l:function(){return null!==this.a?this.a:null===this.c?null:(v-this.c)*this.b},w:function(a,b){b&&L();null!==a&&(this.D(),null!==this.a||null===this.c||0==this.b?(this.a=
a,O(!1)):this.c=v-a/this.b,this.j||(this.c=null),this.s=null,this.B(!0),N())},G:function(){return this.l()},time:function(a){if(t(a)){if(!this.j)throw Q;a=this.u(a);H(a);this.w(a,!0);return this}return this.G()},m:function(){var a=this.l();return this.o?"running":null===a?"idle":null===this.c?"paused":0<this.b&&a>=this.f||0>this.b&&a<=this.g?"finished":"running"},state:function(){return this.m()},duration:function(){return this.v},H:function(a){H(a);L();var b=this.l();this.b=a;null!==b&&this.w(b,
!1)},rate:function(a){return t(a)?(this.H(a),this):this.b},markers:function(a){return t(a)?(this.h.markers=R(a),this):t(this.h.markers)?this.h.markers:{}},marker:function(a){return t(this.h.markers)?this.h.markers[a]:void 0},_cancel:function(){if(!this.j||"idle"==this.m())return this;this.c=this.a=null;this.o=!1;return this}};return{version:"1.1.1",animate:function(){var a={};1==arguments.length%2&&(a=R(arguments[arguments.length-1]));a=new aa(a);for(var b=arguments,c=0,d=0;d<b.length-1;d+=2){var e=
b[d];var n=e instanceof Element?e:document.getElementById(e.substring(1));if(!n)throw Error("Invalid target: "+e);e=n;n=b[d+1];e._ks||(e._ks={});for(var q=[],h=0;h<n.length;++h){var g=n[h],f=J(g,"p","property");if("string"!=typeof f||-1!=f.indexOf("-")||""===f||!(0<T[f]||0<=ca.indexOf(f)))throw Error("Invalid property: "+f);var l=ca.indexOf(f);""!==f&&0<=l&&(f=l);l=S(f);var m=J(g,"t","times");if(!m||2>m.length)throw Error("Not enough times");m=m.slice();if(!isFinite(m[0])||0>m[0])throw Error("Invalid time: "+
m[0]);for(var B=1;B<m.length;++B)if(!isFinite(m[B])||0>m[B]||m[B]<m[B-1])throw Error("Invalid time: "+m[B]);B=m[0];var v=m[m.length-1]-B,y=g.iterations||0;1>y&&(y=1);v*=y;c<v+B&&(c=v+B);var u=J(g,"v","values");if(!u||u.length!=m.length)throw Error("Values do not match times");u=u.slice();for(var C=f,k=u,w=S(C)&240,p=0;p<k.length;++p)if(96==w){for(var G=k[p].substring(6,k[p].length-2).match(/[A-DF-Za-df-z][-+0-9eE., ]*/ig),A=[],r=0;r<G.length;++r){A.push(G[r][0]);for(var z=1<G[r].trim().length?G[r].substring(1).split(","):
[],F=0;F<z.length;++F)z[F]=parseFloat(z[F]);A.push(z)}k[p]=A}else if(48==w)x(k[p],"#")?(G=9==k[p].length,k[p]=parseInt(k[p].substring(1),16),G||(k[p]=256*k[p]|255)):x(k[p],"url(")||"none"==k[p]||(console.warn("unsupported color: "+k[p]),k[p]=0);else if(80==w){G=k;A=p;r=k[p];if("none"==r)r=[0];else{z=[];for(var D=r.indexOf("(");0<D;)if(F=U.indexOf(r.substring(0,D)),0<=F){z.push(F);var E=r.indexOf(") ");0>E&&(E=r.length-1);D=r.substring(D+1,E).split(" ");5==F?(z.push(parseFloat(D[0])),z.push(parseFloat(D[1])),
z.push(parseFloat(D[2])),z.push(ja(D[3]))):1==F?z.push(D[0]):z.push(parseFloat(D[0]));r=r.substring(E+1).trim();D=r.indexOf("(")}else break;r=z}G[A]=r}else 64==w?"none"!=k[p]?/^[0-9 .]*$/.test(k[p])?k[p]=Y(k[p]," "):(console.warn("unsupported value: "+k[p]),k[p]=[0]):k[p]=[0]:32==w?(H(k[p]),k[p]=parseFloat(k[p])):0===C&&(k[p]=parseFloat(k[p]));C=J(g,"e","easing");k=m.length;for(C||(C=[]);C.length<k;)C.push([1,0,0,.58,1]);for(k=0;k<C.length;++k)C[k]=ia(C[k]);l=[f,l,B,v,m,u,C,y];m=J(g,"mp","motionPath");
t(m)&&0===f&&(l[8]=[],l[8][0]=g.motionRotate,g=document.createElementNS("http://www.w3.org/2000/svg","path"),m||(m="M0,0"),g.setAttribute("d",m),l[8][1]=g,l[8][2]=g.getTotalLength());q.push(l)}0<q.length&&(a.A.push(e),a.C.push(q))}a.v=c;a.g=0;a.f=a.v;ba(a);return a},add:ba,remove:P,removeAll:function(){for(var a=w.length-1;0<=a;--a)P(w[a]);return this},timelines:function(){return w.slice()},globalPlay:function(){u&&(W=u-(new Date).getTime(),u=void 0,N());return this},globalPause:function(){u||(u=
v,O(!1));return this},globalState:function(){return u?"paused":"running"}}}();
]]></script><script><![CDATA[if(KeyshapeJS.version.indexOf('1.')!=0)throw Error('Expected KeyshapeJS v1.*.*');window.ks=document.ks=KeyshapeJS;(function(ks){
ks.animate("#Path_1158",[{p:'mpath',t:[0,1000,2000],v:['0%','50%','100%'],e:[[1,.4,0,.6,1],[1,.4,0,.6,1],[0]],mp:"M135.5,242.4C104.9,195.3,65.5,182.6,50.3,180.7C73.6,188.2,92.9,185.4,135.5,242.4"},{p:'rotate',t:[0,1000,2000],v:[0,-52,0],e:[[1,.4,0,.6,1],[1,.4,0,.6,1],[0]]},{p:'anchorX',t:[0,1000,2000],v:[-75.1,-52.4,-75.1],e:[[1,.4,0,.6,1],[1,.4,0,.6,1],[0]]},{p:'anchorY',t:[0,1000,2000],v:[-168.1,-98.4,-168.1],e:[[1,.4,0,.6,1],[1,.4,0,.6,1],[0]]}],
{autoremove:false}).range(0,2000).loop(true);
if(document.location.search.substr(1).split('&').indexOf('global=paused')>=0)ks.globalPause()})(KeyshapeJS);
]]></script></svg>